{"accessors":[{"bufferView":2,"componentType":5126,"count":704,"max":[50.539398193359375,4.110400199890137,4.401599884033203],"min":[-13.291899681091309,-4.054200172424316,-7.537199974060059],"type":"VEC3"},{"bufferView":2,"byteOffset":8448,"componentType":5126,"count":704,"max":[1,0.9998626708984375,0.9819108843803406],"min":[-1,-0.9976789355278015,-0.9964234232902527],"type":"VEC3"},{"bufferView":1,"componentType":5126,"count":704,"max":[1.996399998664856,0.9174000024795532],"min":[0.011300000362098217,0.0071000000461936],"type":"VEC2"},{"bufferView":0,"componentType":5125,"count":1437,"max":[703],"min":[0],"type":"SCALAR"},{"bufferView":2,"byteOffset":16896,"componentType":5126,"count":3383,"max":[60.36130142211914,44.089698791503906,10.851900100708008],"min":[-12.010100364685059,-44.089698791503906,-17.482500076293945],"type":"VEC3"},{"bufferView":2,"byteOffset":57492,"componentType":5126,"count":3383,"max":[1,0.9999991655349731,0.9998997449874878],"min":[-1,-0.9993908405303955,-0.9993337392807007],"type":"VEC3"},{"bufferView":1,"byteOffset":5632,"componentType":5126,"count":3383,"max":[1.555400013923645,0.9962999820709229],"min":[0.00139999995008111,0.0017000000225380063],"type":"VEC2"},{"bufferView":0,"byteOffset":5748,"componentType":5125,"count":10014,"max":[3382],"min":[0],"type":"SCALAR"}],"asset":{"extras":{"author":"techno-science3d (https://sketchfab.com/technoscience3d)","license":"CC0-1.0 (http://creativecommons.org/publicdomain/zero/1.0/)","source":"https://sketchfab.com/3d-models/nieuport-12-first-world-war-airplane-fb0665d6eafa49d1b9dcc2f9b16c37ff","title":"Nieuport 12 - First World War Airplane"},"generator":"Sketchfab-7.80.0","version":"2.0"},"bufferViews":[{"buffer":0,"byteLength":45804,"byteOffset":0,"name":"floatBufferViews","target":34963},{"buffer":0,"byteLength":32696,"byteOffset":45804,"byteStride":8,"name":"floatBufferViews","target":34962},{"buffer":0,"byteLength":98088,"byteOffset":78500,"byteStride":12,"name":"floatBufferViews","target":34962}],"buffers":[{"byteLength":176588,"uri":"data:application/octet-stream;base64,"}],"materials":[{"doubleSided":true,"emissiveFactor":[0,0,0],"name":"Scene_-_Root","pbrMetallicRoughness":{"baseColorFactor":[1,1,1,1],"metallicFactor":0,"roughnessFactor":0.2}}],"meshes":[{"primitives":[{"attributes":{"NORMAL":1,"POSITION":0,"TEXCOORD_0":2},"indices":3,"material":0,"mode":4}]},{"primitives":[{"attributes":{"NORMAL":5,"POSITION":4,"TEXCOORD_0":6},"indices":7,"material":0,"mode":4}]}],"nodes":[{"children":[1],"name":"RootNode (gltf orientation matrix)","rotation":[-0.7071067811865475,0,0,0.7071067811865476]},{"children":[2],"name":"RootNode (model correction matrix)"},{"children":[3,4],"name":"c293c993930042df91ca41bf4abc7949.obj.cleaner.materialmerger.gles"},{"mesh":0,"name":""},{"mesh":1,"name":""}],"scene":0,"scenes":[{"name":"OSG_Scene","nodes":[0]}]}